<svg width="365" height="248" viewBox="0 0 365 248" fill="none" xmlns="http://www.w3.org/2000/svg">
<rect width="365" height="248" fill="#1E1E1E"/>
<g clip-path="url(#clip0_0_1)">
<rect width="1440" height="4897" transform="translate(-86 -1582)" fill="white"/>
<path d="M79.3779 17.832H84.5415V37.3657C84.5415 40.2661 85.208 42.4487 86.541 43.9136C87.8887 45.3638 89.8955 46.0889 92.5615 46.0889C95.2129 46.0889 97.2051 45.3638 98.5381 43.9136C99.8857 42.4487 100.56 40.2661 100.56 37.3657V17.832H105.789V37.8491C105.789 42.1997 104.69 45.459 102.493 47.627C100.296 49.7803 96.9854 50.8569 92.5615 50.8569C88.1377 50.8569 84.8345 49.7803 82.6519 47.627C80.4692 45.4736 79.3779 42.2144 79.3779 37.8491V17.832ZM112.601 50V29.1699H117.083V32.5757C118.035 31.1401 119.156 30.0928 120.445 29.4336C121.734 28.7744 123.301 28.4448 125.147 28.4448C126.7 28.4448 128.018 28.6938 129.102 29.1919C130.201 29.6753 131.058 30.4004 131.673 31.3672C132.039 31.9385 132.303 32.605 132.464 33.3667C132.625 34.1284 132.706 35.4614 132.706 37.3657V50H127.894V39.2993C127.894 36.5601 127.557 34.7437 126.883 33.8501C126.224 32.9419 125.044 32.4878 123.345 32.4878C122.232 32.4878 121.236 32.6929 120.357 33.103C119.493 33.5132 118.812 34.0918 118.313 34.8389C117.962 35.3369 117.713 35.9814 117.566 36.7725C117.435 37.5488 117.369 38.7939 117.369 40.5078V50H112.601ZM139.275 50V15.9424H144.043V50H139.275ZM167.247 39.6509C167.247 37.7173 166.624 36.084 165.379 34.751C164.134 33.4033 162.61 32.7295 160.809 32.7295C159.021 32.7295 157.498 33.4033 156.238 34.751C154.993 36.084 154.371 37.7173 154.371 39.6509C154.371 41.5845 154.993 43.2251 156.238 44.5728C157.498 45.9058 159.021 46.5723 160.809 46.5723C162.596 46.5723 164.112 45.9058 165.357 44.5728C166.617 43.2251 167.247 41.5845 167.247 39.6509ZM149.339 39.6069C149.339 38.0835 149.625 36.6479 150.196 35.3003C150.782 33.938 151.617 32.7295 152.701 31.6748C153.77 30.6348 155 29.8364 156.392 29.2798C157.784 28.7231 159.241 28.4448 160.765 28.4448C162.332 28.4448 163.804 28.7231 165.181 29.2798C166.573 29.8364 167.818 30.6567 168.917 31.7407C170.015 32.8101 170.85 34.0186 171.421 35.3662C171.993 36.7139 172.278 38.1274 172.278 39.6069C172.278 41.145 171.993 42.5879 171.421 43.9355C170.865 45.2832 170.044 46.4771 168.96 47.5171C167.818 48.6157 166.551 49.4434 165.159 50C163.768 50.5713 162.303 50.8569 160.765 50.8569C159.256 50.8569 157.806 50.5713 156.414 50C155.022 49.4434 153.785 48.6304 152.701 47.561C151.602 46.4771 150.767 45.2612 150.196 43.9136C149.625 42.5659 149.339 41.1304 149.339 39.6069ZM192.889 35.1025C192.156 34.2969 191.299 33.6816 190.318 33.2568C189.351 32.832 188.304 32.6196 187.176 32.6196C185.228 32.6196 183.667 33.2495 182.496 34.5093C181.324 35.769 180.738 37.439 180.738 39.519C180.738 41.687 181.324 43.3936 182.496 44.6387C183.682 45.8691 185.315 46.4844 187.396 46.4844C188.553 46.4844 189.585 46.272 190.494 45.8472C191.402 45.4077 192.2 44.7485 192.889 43.8696V49.3628C192.01 49.8608 191.065 50.2344 190.054 50.4834C189.058 50.7324 187.996 50.8569 186.868 50.8569C183.602 50.8569 180.936 49.8169 178.87 47.7368C176.819 45.6567 175.794 42.9614 175.794 39.6509C175.794 36.2964 176.856 33.5938 178.98 31.543C181.119 29.4775 183.909 28.4448 187.352 28.4448C188.436 28.4448 189.432 28.5547 190.34 28.7744C191.248 28.9795 192.098 29.3018 192.889 29.7412V35.1025ZM197.767 50V15.9424H202.535V37.8052L211.258 29.1699H217.146L207.698 38.3545L218.047 50H211.895L202.535 39.2554V50H197.767ZM238.174 59.7998H233.274L238.987 48.1982L231.341 29.1699H236.614L240.438 39.9585C240.657 40.6177 240.848 41.2915 241.009 41.98C241.185 42.6538 241.324 43.3423 241.426 44.0454C241.617 43.313 242.071 42.1484 242.789 40.5518L242.898 40.2881L248.04 29.1699H253.204L238.174 59.7998ZM272.188 39.6509C272.188 37.7173 271.565 36.084 270.32 34.751C269.075 33.4033 267.552 32.7295 265.75 32.7295C263.963 32.7295 262.439 33.4033 261.18 34.751C259.935 36.084 259.312 37.7173 259.312 39.6509C259.312 41.5845 259.935 43.2251 261.18 44.5728C262.439 45.9058 263.963 46.5723 265.75 46.5723C267.537 46.5723 269.053 45.9058 270.298 44.5728C271.558 43.2251 272.188 41.5845 272.188 39.6509ZM254.28 39.6069C254.28 38.0835 254.566 36.6479 255.137 35.3003C255.723 33.938 256.558 32.7295 257.642 31.6748C258.711 30.6348 259.942 29.8364 261.333 29.2798C262.725 28.7231 264.183 28.4448 265.706 28.4448C267.273 28.4448 268.746 28.7231 270.123 29.2798C271.514 29.8364 272.759 30.6567 273.858 31.7407C274.957 32.8101 275.792 34.0186 276.363 35.3662C276.934 36.7139 277.22 38.1274 277.22 39.6069C277.22 41.145 276.934 42.5879 276.363 43.9355C275.806 45.2832 274.986 46.4771 273.902 47.5171C272.759 48.6157 271.492 49.4434 270.101 50C268.709 50.5713 267.244 50.8569 265.706 50.8569C264.197 50.8569 262.747 50.5713 261.355 50C259.964 49.4434 258.726 48.6304 257.642 47.561C256.543 46.4771 255.708 45.2612 255.137 43.9136C254.566 42.5659 254.28 41.1304 254.28 39.6069ZM286.888 29.1699V40.9033C286.888 42.9248 287.305 44.375 288.14 45.2539C288.975 46.1328 290.33 46.5723 292.205 46.5723C294.08 46.5723 295.435 46.1328 296.27 45.2539C297.105 44.375 297.522 42.9248 297.522 40.9033V29.1699H302.291V39.4751C302.291 43.4595 301.492 46.3525 299.896 48.1543C298.299 49.9561 295.75 50.8569 292.249 50.8569C288.689 50.8569 286.111 49.9634 284.515 48.1763C282.918 46.3892 282.12 43.4888 282.12 39.4751V29.1699H286.888ZM313.497 32.4878C314.009 31.1108 314.683 30.0928 315.518 29.4336C316.368 28.7744 317.415 28.4448 318.66 28.4448C319.334 28.4448 319.993 28.5254 320.638 28.6865C321.297 28.8477 321.941 29.082 322.571 29.3896L320.857 33.4326C320.447 33.1396 320 32.9272 319.517 32.7954C319.048 32.6489 318.521 32.5757 317.935 32.5757C316.353 32.5757 315.218 33.2129 314.529 34.4873C313.841 35.7471 313.497 37.8711 313.497 40.8594V50H308.729V29.126H313.497V32.4878ZM60.1299 93.519C60.1299 95.6724 60.6646 97.3936 61.7339 98.6826C62.8179 99.9717 64.2388 100.616 65.9966 100.616C67.7983 100.616 69.1899 100.016 70.1714 98.8145C71.1675 97.6133 71.6655 95.9067 71.6655 93.6948C71.6655 91.4976 71.1455 89.7837 70.1055 88.5532C69.0801 87.3081 67.6665 86.6855 65.8647 86.6855C64.063 86.6855 62.6567 87.2861 61.646 88.4873C60.6353 89.6885 60.1299 91.3657 60.1299 93.519ZM55.5156 113.8V83.1699H60.2837V86.5757C60.8403 85.2573 61.7266 84.2393 62.9424 83.5215C64.1729 82.8037 65.6377 82.4448 67.3369 82.4448C70.1055 82.4448 72.3467 83.4702 74.0605 85.521C75.7891 87.5571 76.6533 90.2378 76.6533 93.563C76.6533 97.064 75.8037 99.8252 74.1045 101.847C72.4199 103.854 70.1055 104.857 67.1611 104.857C65.6963 104.857 64.3926 104.564 63.25 103.978C62.1221 103.392 61.1333 102.499 60.2837 101.297V113.8H55.5156ZM98.0767 93.6509C98.0767 91.7173 97.4541 90.084 96.209 88.751C94.9639 87.4033 93.4404 86.7295 91.6387 86.7295C89.8516 86.7295 88.3281 87.4033 87.0684 88.751C85.8232 90.084 85.2007 91.7173 85.2007 93.6509C85.2007 95.5845 85.8232 97.2251 87.0684 98.5728C88.3281 99.9058 89.8516 100.572 91.6387 100.572C93.4258 100.572 94.9419 99.9058 96.187 98.5728C97.4468 97.2251 98.0767 95.5845 98.0767 93.6509ZM80.1689 93.6069C80.1689 92.0835 80.4546 90.6479 81.0259 89.3003C81.6118 87.938 82.4468 86.7295 83.5308 85.6748C84.6001 84.6348 85.8306 83.8364 87.2222 83.2798C88.6138 82.7231 90.0713 82.4448 91.5947 82.4448C93.1621 82.4448 94.6343 82.7231 96.0112 83.2798C97.4028 83.8364 98.6479 84.6567 99.7466 85.7407C100.845 86.8101 101.68 88.0186 102.251 89.3662C102.823 90.7139 103.108 92.1274 103.108 93.6069C103.108 95.145 102.823 96.5879 102.251 97.9355C101.695 99.2832 100.875 100.477 99.7905 101.517C98.6479 102.616 97.3809 103.443 95.9893 104C94.5977 104.571 93.1328 104.857 91.5947 104.857C90.0859 104.857 88.6357 104.571 87.2441 104C85.8525 103.443 84.6147 102.63 83.5308 101.561C82.4321 100.477 81.5972 99.2612 81.0259 97.9136C80.4546 96.5659 80.1689 95.1304 80.1689 93.6069ZM123.125 93.519C123.125 91.3657 122.62 89.6885 121.609 88.4873C120.613 87.2861 119.214 86.6855 117.413 86.6855C115.611 86.6855 114.19 87.3081 113.15 88.5532C112.125 89.7837 111.612 91.4976 111.612 93.6948C111.612 95.9067 112.11 97.6133 113.106 98.8145C114.102 100.016 115.508 100.616 117.325 100.616C119.053 100.616 120.452 99.9717 121.521 98.6826C122.591 97.3789 123.125 95.6577 123.125 93.519ZM122.994 69.9424H127.762V104H122.994V101.297C122.144 102.499 121.148 103.392 120.005 103.978C118.877 104.564 117.581 104.857 116.116 104.857C113.172 104.857 110.85 103.854 109.151 101.847C107.466 99.8252 106.624 97.064 106.624 93.563C106.624 90.2378 107.488 87.5571 109.217 85.521C110.945 83.4702 113.201 82.4448 115.984 82.4448C117.684 82.4448 119.134 82.8037 120.335 83.5215C121.551 84.2246 122.437 85.2427 122.994 86.5757V69.9424ZM149.91 89.1025C149.178 88.2969 148.321 87.6816 147.339 87.2568C146.373 86.832 145.325 86.6196 144.197 86.6196C142.249 86.6196 140.689 87.2495 139.517 88.5093C138.345 89.769 137.759 91.439 137.759 93.519C137.759 95.687 138.345 97.3936 139.517 98.6387C140.704 99.8691 142.337 100.484 144.417 100.484C145.574 100.484 146.607 100.272 147.515 99.8472C148.423 99.4077 149.222 98.7485 149.91 97.8696V103.363C149.031 103.861 148.086 104.234 147.076 104.483C146.08 104.732 145.018 104.857 143.89 104.857C140.623 104.857 137.957 103.817 135.892 101.737C133.841 99.6567 132.815 96.9614 132.815 93.6509C132.815 90.2964 133.877 87.5938 136.001 85.543C138.14 83.4775 140.931 82.4448 144.373 82.4448C145.457 82.4448 146.453 82.5547 147.361 82.7744C148.27 82.9795 149.119 83.3018 149.91 83.7412V89.1025ZM174.388 104H169.62V101.297C168.77 102.499 167.774 103.392 166.631 103.978C165.503 104.564 164.207 104.857 162.742 104.857C159.798 104.857 157.476 103.854 155.777 101.847C154.092 99.8252 153.25 97.064 153.25 93.563C153.25 90.2378 154.114 87.5571 155.843 85.521C157.571 83.4702 159.827 82.4448 162.61 82.4448C164.31 82.4448 165.76 82.8037 166.961 83.5215C168.177 84.2246 169.063 85.2427 169.62 86.5757V83.1699H174.388V104ZM169.751 93.519C169.751 91.3657 169.246 89.6885 168.235 88.4873C167.239 87.2861 165.84 86.6855 164.039 86.6855C162.237 86.6855 160.816 87.3081 159.776 88.5532C158.75 89.7837 158.238 91.4976 158.238 93.6948C158.238 95.9067 158.736 97.6133 159.732 98.8145C160.728 100.016 162.134 100.616 163.951 100.616C165.665 100.616 167.056 99.9644 168.125 98.6606C169.209 97.3569 169.751 95.6431 169.751 93.519ZM178.584 100.221L182.54 98.0674C182.833 99.1074 183.375 99.8984 184.166 100.44C184.957 100.982 185.975 101.253 187.22 101.253C188.289 101.253 189.124 101.012 189.725 100.528C190.34 100.03 190.647 99.3564 190.647 98.5068C190.647 97.3789 189.563 96.4121 187.396 95.6064C186.663 95.3428 186.099 95.123 185.704 94.9473C183.477 94.0244 181.917 93.0869 181.023 92.1348C180.145 91.1826 179.705 90.0254 179.705 88.6631C179.705 86.8027 180.43 85.2939 181.88 84.1367C183.345 82.9795 185.279 82.4009 187.681 82.4009C189.292 82.4009 190.669 82.7012 191.812 83.3018C192.969 83.8877 193.812 84.73 194.339 85.8286L190.955 88.1577C190.706 87.4985 190.267 86.9785 189.637 86.5977C189.021 86.2021 188.304 86.0044 187.483 86.0044C186.575 86.0044 185.843 86.2241 185.286 86.6636C184.744 87.0884 184.473 87.6597 184.473 88.3774C184.473 89.4614 185.704 90.4502 188.165 91.3438C188.941 91.6221 189.542 91.8491 189.966 92.0249C191.885 92.7866 193.255 93.6509 194.075 94.6177C194.91 95.5698 195.328 96.7637 195.328 98.1992C195.328 100.279 194.573 101.913 193.064 103.099C191.556 104.271 189.476 104.857 186.824 104.857C184.788 104.857 183.096 104.476 181.749 103.714C180.401 102.953 179.346 101.788 178.584 100.221ZM201.26 104V87.3447H197.613V83.1699H201.26V75.2817H206.028V83.1699H209.676V87.3447H206.028V104H201.26ZM214.488 83.0381L218.663 71.1069L222.684 72.4033L217.278 84.0708L214.488 83.0381ZM226.265 100.221L230.22 98.0674C230.513 99.1074 231.055 99.8984 231.846 100.44C232.637 100.982 233.655 101.253 234.9 101.253C235.97 101.253 236.805 101.012 237.405 100.528C238.021 100.03 238.328 99.3564 238.328 98.5068C238.328 97.3789 237.244 96.4121 235.076 95.6064C234.344 95.3428 233.78 95.123 233.384 94.9473C231.158 94.0244 229.598 93.0869 228.704 92.1348C227.825 91.1826 227.386 90.0254 227.386 88.6631C227.386 86.8027 228.111 85.2939 229.561 84.1367C231.026 82.9795 232.959 82.4009 235.362 82.4009C236.973 82.4009 238.35 82.7012 239.493 83.3018C240.65 83.8877 241.492 84.73 242.02 85.8286L238.636 88.1577C238.387 87.4985 237.947 86.9785 237.317 86.5977C236.702 86.2021 235.984 86.0044 235.164 86.0044C234.256 86.0044 233.523 86.2241 232.967 86.6636C232.425 87.0884 232.154 87.6597 232.154 88.3774C232.154 89.4614 233.384 90.4502 235.845 91.3438C236.622 91.6221 237.222 91.8491 237.647 92.0249C239.566 92.7866 240.936 93.6509 241.756 94.6177C242.591 95.5698 243.008 96.7637 243.008 98.1992C243.008 100.279 242.254 101.913 240.745 103.099C239.236 104.271 237.156 104.857 234.505 104.857C232.469 104.857 230.777 104.476 229.429 103.714C228.082 102.953 227.027 101.788 226.265 100.221ZM262.059 104V87.3447H258.411V83.1699H262.059V77.5889C262.059 74.8203 262.63 72.7769 263.772 71.4585C264.93 70.1401 266.717 69.481 269.134 69.481C269.646 69.481 270.174 69.5176 270.716 69.5908C271.258 69.6641 271.807 69.7812 272.364 69.9424V74.249C271.983 74.0293 271.595 73.8682 271.199 73.7656C270.818 73.6484 270.43 73.5898 270.035 73.5898C268.892 73.5898 268.072 73.9414 267.574 74.6445C267.076 75.3477 266.827 76.5342 266.827 78.2041V83.1699H271.836V87.3447H266.827V104H262.059ZM279.812 83.1699V94.9033C279.812 96.9248 280.23 98.375 281.065 99.2539C281.9 100.133 283.255 100.572 285.13 100.572C287.005 100.572 288.36 100.133 289.195 99.2539C290.03 98.375 290.447 96.9248 290.447 94.9033V83.1699H295.215V93.4751C295.215 97.4595 294.417 100.353 292.82 102.154C291.224 103.956 288.675 104.857 285.174 104.857C281.614 104.857 279.036 103.963 277.439 102.176C275.843 100.389 275.044 97.4888 275.044 93.4751V83.1699H279.812ZM301.873 104V69.9424H306.641V104H301.873ZM313.694 104V69.9424H318.462V104H313.694ZM49.3193 147.519C49.3193 149.672 49.854 151.394 50.9233 152.683C52.0073 153.972 53.4282 154.616 55.186 154.616C56.9878 154.616 58.3794 154.016 59.3608 152.814C60.3569 151.613 60.855 149.907 60.855 147.695C60.855 145.498 60.335 143.784 59.2949 142.553C58.2695 141.308 56.856 140.686 55.0542 140.686C53.2524 140.686 51.8462 141.286 50.8354 142.487C49.8247 143.688 49.3193 145.366 49.3193 147.519ZM44.7051 167.8V137.17H49.4731V140.576C50.0298 139.257 50.916 138.239 52.1318 137.521C53.3623 136.804 54.8271 136.445 56.5264 136.445C59.2949 136.445 61.5361 137.47 63.25 139.521C64.9785 141.557 65.8428 144.238 65.8428 147.563C65.8428 151.064 64.9932 153.825 63.2939 155.847C61.6094 157.854 59.2949 158.857 56.3506 158.857C54.8857 158.857 53.582 158.564 52.4395 157.978C51.3115 157.392 50.3228 156.499 49.4731 155.297V167.8H44.7051ZM87.2661 147.651C87.2661 145.717 86.6436 144.084 85.3984 142.751C84.1533 141.403 82.6299 140.729 80.8281 140.729C79.041 140.729 77.5176 141.403 76.2578 142.751C75.0127 144.084 74.3901 145.717 74.3901 147.651C74.3901 149.584 75.0127 151.225 76.2578 152.573C77.5176 153.906 79.041 154.572 80.8281 154.572C82.6152 154.572 84.1313 153.906 85.3765 152.573C86.6362 151.225 87.2661 149.584 87.2661 147.651ZM69.3584 147.607C69.3584 146.083 69.644 144.648 70.2153 143.3C70.8013 141.938 71.6362 140.729 72.7202 139.675C73.7896 138.635 75.02 137.836 76.4116 137.28C77.8032 136.723 79.2607 136.445 80.7842 136.445C82.3516 136.445 83.8237 136.723 85.2007 137.28C86.5923 137.836 87.8374 138.657 88.936 139.741C90.0347 140.81 90.8696 142.019 91.4409 143.366C92.0122 144.714 92.2979 146.127 92.2979 147.607C92.2979 149.145 92.0122 150.588 91.4409 151.936C90.8843 153.283 90.064 154.477 88.98 155.517C87.8374 156.616 86.5703 157.443 85.1787 158C83.7871 158.571 82.3223 158.857 80.7842 158.857C79.2754 158.857 77.8252 158.571 76.4336 158C75.042 157.443 73.8042 156.63 72.7202 155.561C71.6216 154.477 70.7866 153.261 70.2153 151.914C69.644 150.566 69.3584 149.13 69.3584 147.607ZM98.4722 158V141.345H94.8247V137.17H98.4722V129.282H103.24V137.17H106.888V141.345H103.24V158H98.4722ZM131.08 148.288H114.424C114.542 150.236 115.12 151.76 116.16 152.858C117.2 153.942 118.584 154.484 120.313 154.484C121.851 154.484 123.133 154.162 124.158 153.518C125.184 152.873 126.077 151.833 126.839 150.397L130.86 152.639C129.688 154.733 128.238 156.293 126.509 157.319C124.781 158.344 122.752 158.857 120.423 158.857C117.083 158.857 114.424 157.839 112.447 155.803C110.469 153.767 109.48 151.049 109.48 147.651C109.48 144.384 110.499 141.704 112.535 139.609C114.585 137.5 117.215 136.445 120.423 136.445C123.777 136.445 126.392 137.404 128.267 139.323C130.142 141.242 131.08 143.93 131.08 147.387V148.288ZM126.136 145.08C125.945 143.586 125.374 142.451 124.422 141.674C123.47 140.883 122.166 140.488 120.511 140.488C118.943 140.488 117.684 140.869 116.731 141.63C115.779 142.392 115.113 143.542 114.732 145.08H126.136ZM136.067 158V137.17H140.55V140.576C141.502 139.14 142.623 138.093 143.912 137.434C145.201 136.774 146.768 136.445 148.614 136.445C150.167 136.445 151.485 136.694 152.569 137.192C153.667 137.675 154.524 138.4 155.14 139.367C155.506 139.938 155.77 140.605 155.931 141.367C156.092 142.128 156.172 143.461 156.172 145.366V158H151.36V147.299C151.36 144.56 151.023 142.744 150.35 141.85C149.69 140.942 148.511 140.488 146.812 140.488C145.699 140.488 144.703 140.693 143.824 141.103C142.959 141.513 142.278 142.092 141.78 142.839C141.429 143.337 141.18 143.981 141.033 144.772C140.901 145.549 140.835 146.794 140.835 148.508V158H136.067ZM163.643 158V141.345H159.996V137.17H163.643V129.282H168.411V137.17H172.059V141.345H168.411V158H163.643ZM175.772 128.161C175.772 127.355 176.065 126.66 176.651 126.074C177.251 125.488 177.962 125.195 178.782 125.195C179.632 125.195 180.335 125.48 180.892 126.052C181.463 126.608 181.749 127.312 181.749 128.161C181.749 129.011 181.463 129.729 180.892 130.314C180.32 130.886 179.617 131.171 178.782 131.171C177.962 131.171 177.251 130.878 176.651 130.292C176.065 129.692 175.772 128.981 175.772 128.161ZM176.409 158V137.17H181.177V158H176.409ZM207.61 158H202.842V155.297C201.993 156.499 200.997 157.392 199.854 157.978C198.726 158.564 197.43 158.857 195.965 158.857C193.021 158.857 190.699 157.854 189 155.847C187.315 153.825 186.473 151.064 186.473 147.563C186.473 144.238 187.337 141.557 189.065 139.521C190.794 137.47 193.05 136.445 195.833 136.445C197.532 136.445 198.982 136.804 200.184 137.521C201.399 138.225 202.286 139.243 202.842 140.576V137.17H207.61V158ZM202.974 147.519C202.974 145.366 202.469 143.688 201.458 142.487C200.462 141.286 199.063 140.686 197.261 140.686C195.459 140.686 194.039 141.308 192.999 142.553C191.973 143.784 191.46 145.498 191.46 147.695C191.46 149.907 191.958 151.613 192.955 152.814C193.951 154.016 195.357 154.616 197.173 154.616C198.887 154.616 200.279 153.964 201.348 152.661C202.432 151.357 202.974 149.643 202.974 147.519ZM214.422 158V123.942H219.19V158H214.422ZM259.532 159.252L254.72 148.42C254.354 147.585 254.053 146.845 253.819 146.201C253.584 145.542 253.372 144.897 253.182 144.267C252.859 145.219 252.574 146.04 252.325 146.728C252.076 147.402 251.878 147.907 251.731 148.244L246.788 159.252L235.999 137.17H241.075L245.755 147.211C245.945 147.636 246.128 148.222 246.304 148.969C246.495 149.702 246.656 150.515 246.788 151.408C246.802 150.881 246.89 150.332 247.051 149.76C247.212 149.189 247.483 148.486 247.864 147.651L252.962 136.401H253.357L258.543 147.651C258.865 148.354 259.1 149.006 259.246 149.606C259.407 150.207 259.502 150.808 259.532 151.408C259.664 150.617 259.832 149.87 260.037 149.167C260.242 148.464 260.477 147.827 260.74 147.255L265.333 137.17H270.364L259.532 159.252ZM272.935 128.161C272.935 127.355 273.228 126.66 273.814 126.074C274.415 125.488 275.125 125.195 275.945 125.195C276.795 125.195 277.498 125.48 278.055 126.052C278.626 126.608 278.912 127.312 278.912 128.161C278.912 129.011 278.626 129.729 278.055 130.314C277.483 130.886 276.78 131.171 275.945 131.171C275.125 131.171 274.415 130.878 273.814 130.292C273.228 129.692 272.935 128.981 272.935 128.161ZM273.572 158V137.17H278.34V158H273.572ZM286.294 158V141.345H282.647V137.17H286.294V129.282H291.062V137.17H294.71V141.345H291.062V158H286.294ZM298.841 158V123.942H303.323V140.576C304.275 139.14 305.396 138.093 306.685 137.434C307.974 136.774 309.542 136.445 311.387 136.445C312.94 136.445 314.258 136.694 315.342 137.192C316.441 137.675 317.298 138.4 317.913 139.367C318.279 139.938 318.543 140.605 318.704 141.367C318.865 142.128 318.946 143.461 318.946 145.366V158H314.134V147.299C314.134 144.56 313.797 142.744 313.123 141.85C312.464 140.942 311.285 140.488 309.585 140.488C308.472 140.488 307.476 140.693 306.597 141.103C305.733 141.513 305.052 142.092 304.554 142.839C304.202 143.337 303.953 143.981 303.807 144.772C303.675 145.549 303.609 146.794 303.609 148.508V158H298.841ZM220.486 193.279H221.827C224.727 193.279 226.661 192.964 227.627 192.334C228.594 191.705 229.078 190.591 229.078 188.995C229.078 187.281 228.558 186.072 227.518 185.369C226.492 184.666 224.595 184.314 221.827 184.314H220.486V193.279ZM220.157 197.564V212H215.257V179.832H223.167C225.511 179.832 227.232 179.964 228.331 180.228C229.444 180.477 230.411 180.894 231.231 181.48C232.242 182.227 233.033 183.238 233.604 184.512C234.175 185.772 234.461 187.164 234.461 188.687C234.461 190.21 234.175 191.617 233.604 192.906C233.033 194.195 232.242 195.206 231.231 195.938C230.411 196.524 229.444 196.941 228.331 197.19C227.232 197.439 225.511 197.564 223.167 197.564H222.134H220.157ZM253.555 201.651C253.555 199.717 252.933 198.084 251.688 196.751C250.442 195.403 248.919 194.729 247.117 194.729C245.33 194.729 243.807 195.403 242.547 196.751C241.302 198.084 240.679 199.717 240.679 201.651C240.679 203.584 241.302 205.225 242.547 206.573C243.807 207.906 245.33 208.572 247.117 208.572C248.904 208.572 250.42 207.906 251.666 206.573C252.925 205.225 253.555 203.584 253.555 201.651ZM235.647 201.607C235.647 200.083 235.933 198.648 236.504 197.3C237.09 195.938 237.925 194.729 239.009 193.675C240.079 192.635 241.309 191.836 242.701 191.28C244.092 190.723 245.55 190.445 247.073 190.445C248.641 190.445 250.113 190.723 251.49 191.28C252.881 191.836 254.126 192.657 255.225 193.741C256.324 194.81 257.159 196.019 257.73 197.366C258.301 198.714 258.587 200.127 258.587 201.607C258.587 203.145 258.301 204.588 257.73 205.936C257.173 207.283 256.353 208.477 255.269 209.517C254.126 210.616 252.859 211.443 251.468 212C250.076 212.571 248.611 212.857 247.073 212.857C245.564 212.857 244.114 212.571 242.723 212C241.331 211.443 240.093 210.63 239.009 209.561C237.911 208.477 237.076 207.261 236.504 205.914C235.933 204.566 235.647 203.13 235.647 201.607ZM278.604 201.519C278.604 199.366 278.099 197.688 277.088 196.487C276.092 195.286 274.693 194.686 272.891 194.686C271.089 194.686 269.668 195.308 268.628 196.553C267.603 197.784 267.09 199.498 267.09 201.695C267.09 203.907 267.588 205.613 268.584 206.814C269.581 208.016 270.987 208.616 272.803 208.616C274.532 208.616 275.931 207.972 277 206.683C278.069 205.379 278.604 203.658 278.604 201.519ZM278.472 177.942H283.24V212H278.472V209.297C277.623 210.499 276.626 211.392 275.484 211.978C274.356 212.564 273.06 212.857 271.595 212.857C268.65 212.857 266.329 211.854 264.629 209.847C262.945 207.825 262.103 205.064 262.103 201.563C262.103 198.238 262.967 195.557 264.695 193.521C266.424 191.47 268.68 190.445 271.463 190.445C273.162 190.445 274.612 190.804 275.813 191.521C277.029 192.225 277.916 193.243 278.472 194.576V177.942ZM290.228 212V179.832H308.179V184.271H295.457V192.291H308.179V196.883H295.457V212H290.228ZM313.057 182.161C313.057 181.355 313.35 180.66 313.936 180.074C314.537 179.488 315.247 179.195 316.067 179.195C316.917 179.195 317.62 179.48 318.177 180.052C318.748 180.608 319.034 181.312 319.034 182.161C319.034 183.011 318.748 183.729 318.177 184.314C317.605 184.886 316.902 185.171 316.067 185.171C315.247 185.171 314.537 184.878 313.936 184.292C313.35 183.692 313.057 182.981 313.057 182.161ZM313.694 212V191.17H318.462V212H313.694Z" fill="black"/>
<path d="M0 60C0 26.8629 26.8629 0 60 0H305C338.137 0 365 26.8629 365 60V188C365 221.137 338.137 248 305 248H224.742C208.802 248 195.88 235.078 195.88 219.138V219.138C195.88 203.198 182.958 190.276 167.018 190.276H60C26.8629 190.276 0 163.413 0 130.276V60Z" fill="#4B93D8" fill-opacity="0.26"/>
</g>
<defs>
<clipPath id="clip0_0_1">
<rect width="1440" height="4897" fill="white" transform="translate(-86 -1582)"/>
</clipPath>
</defs>
</svg>
