<svg width="473" height="259" viewBox="0 0 473 259" fill="none" xmlns="http://www.w3.org/2000/svg">
<rect width="473" height="259" fill="#1E1E1E"/>
<g clip-path="url(#clip0_0_1)">
<rect width="1440" height="4897" transform="translate(-920 -1570)" fill="white"/>
<path d="M66.5112 45.5205H79.2554C79.2554 45.7402 79.2627 46.0479 79.2773 46.4434C79.3213 47.4834 79.3433 48.1865 79.3433 48.5527C79.3433 53.0791 78.0469 56.5947 75.4541 59.0996C72.8613 61.6045 69.2065 62.8569 64.4897 62.8569C61.853 62.8569 59.502 62.4688 57.4365 61.6924C55.3711 60.916 53.562 59.7441 52.0093 58.1768C50.4858 56.624 49.314 54.8003 48.4937 52.7056C47.688 50.6108 47.2852 48.3696 47.2852 45.9819C47.2852 43.5503 47.6953 41.3091 48.5156 39.2583C49.3506 37.2075 50.5811 35.3984 52.207 33.8311C53.7744 32.293 55.6128 31.1211 57.7222 30.3154C59.8315 29.5098 62.0874 29.1069 64.4897 29.1069C67.0239 29.1069 69.2871 29.5684 71.2793 30.4912C73.2861 31.4141 75.0732 32.8276 76.6406 34.7319L72.8174 37.6104C71.7334 36.3506 70.5103 35.4131 69.1479 34.7979C67.7856 34.1826 66.2622 33.875 64.5776 33.875C61.0913 33.875 58.2422 34.9956 56.0303 37.2368C53.833 39.4634 52.7344 42.3638 52.7344 45.938C52.7344 49.5708 53.833 52.5225 56.0303 54.793C58.2422 57.0488 61.106 58.1768 64.6216 58.1768C67.6099 58.1768 69.9609 57.481 71.6748 56.0894C73.3887 54.6978 74.2456 52.8008 74.2456 50.3984V49.937H66.5112V45.5205ZM104.524 52.2881H87.8687C87.9858 54.2363 88.5645 55.7598 89.6045 56.8584C90.6445 57.9424 92.0288 58.4844 93.7573 58.4844C95.2954 58.4844 96.5771 58.1621 97.6025 57.5176C98.6279 56.873 99.5215 55.833 100.283 54.3975L104.304 56.6387C103.132 58.7334 101.682 60.2935 99.9536 61.3188C98.2251 62.3442 96.1963 62.8569 93.8672 62.8569C90.5273 62.8569 87.8687 61.8389 85.8911 59.8027C83.9136 57.7666 82.9248 55.0493 82.9248 51.6509C82.9248 48.3843 83.9429 45.7036 85.979 43.6089C88.0298 41.4995 90.6592 40.4448 93.8672 40.4448C97.2217 40.4448 99.8364 41.4043 101.711 43.3232C103.586 45.2422 104.524 47.9302 104.524 51.3872V52.2881ZM99.5801 49.0801C99.3896 47.5859 98.8184 46.4507 97.8662 45.6743C96.9141 44.8833 95.6104 44.4878 93.9551 44.4878C92.3877 44.4878 91.1279 44.8687 90.1758 45.6304C89.2236 46.3921 88.5571 47.542 88.1763 49.0801H99.5801ZM110.632 62V45.3447H106.985V41.1699H110.632V33.2817H115.4V41.1699H119.048V45.3447H115.4V62H110.632ZM147.371 63.2524L133.022 29.832H138.45L145.657 46.9707C146.082 47.9668 146.433 48.8896 146.711 49.7393C146.99 50.5742 147.209 51.3726 147.371 52.1343C147.561 51.3286 147.803 50.4937 148.096 49.6294C148.389 48.7651 148.733 47.8789 149.128 46.9707L156.313 29.832H161.719L147.371 63.2524ZM181.714 62H176.946V59.2974C176.096 60.4985 175.1 61.3921 173.958 61.978C172.83 62.564 171.533 62.8569 170.068 62.8569C167.124 62.8569 164.802 61.8535 163.103 59.8467C161.418 57.8252 160.576 55.064 160.576 51.563C160.576 48.2378 161.44 45.5571 163.169 43.521C164.897 41.4702 167.153 40.4448 169.937 40.4448C171.636 40.4448 173.086 40.8037 174.287 41.5215C175.503 42.2246 176.389 43.2427 176.946 44.5757V41.1699H181.714V62ZM177.078 51.519C177.078 49.3657 176.572 47.6885 175.562 46.4873C174.565 45.2861 173.167 44.6855 171.365 44.6855C169.563 44.6855 168.142 45.3081 167.102 46.5532C166.077 47.7837 165.564 49.4976 165.564 51.6948C165.564 53.9067 166.062 55.6133 167.058 56.8145C168.054 58.0156 169.46 58.6162 171.277 58.6162C172.991 58.6162 174.382 57.9644 175.452 56.6606C176.536 55.3569 177.078 53.6431 177.078 51.519ZM188.525 62V27.9424H193.293V62H188.525ZM204.741 41.1699V52.9033C204.741 54.9248 205.159 56.375 205.994 57.2539C206.829 58.1328 208.184 58.5723 210.059 58.5723C211.934 58.5723 213.289 58.1328 214.124 57.2539C214.958 56.375 215.376 54.9248 215.376 52.9033V41.1699H220.144V51.4751C220.144 55.4595 219.346 58.3525 217.749 60.1543C216.152 61.9561 213.604 62.8569 210.103 62.8569C206.543 62.8569 203.965 61.9634 202.368 60.1763C200.771 58.3892 199.973 55.4888 199.973 51.4751V41.1699H204.741ZM246.643 52.2881H229.988C230.105 54.2363 230.684 55.7598 231.724 56.8584C232.764 57.9424 234.148 58.4844 235.876 58.4844C237.415 58.4844 238.696 58.1621 239.722 57.5176C240.747 56.873 241.641 55.833 242.402 54.3975L246.423 56.6387C245.251 58.7334 243.801 60.2935 242.073 61.3188C240.344 62.3442 238.315 62.8569 235.986 62.8569C232.646 62.8569 229.988 61.8389 228.01 59.8027C226.033 57.7666 225.044 55.0493 225.044 51.6509C225.044 48.3843 226.062 45.7036 228.098 43.6089C230.149 41.4995 232.778 40.4448 235.986 40.4448C239.341 40.4448 241.956 41.4043 243.831 43.3232C245.706 45.2422 246.643 47.9302 246.643 51.3872V52.2881ZM241.699 49.0801C241.509 47.5859 240.938 46.4507 239.985 45.6743C239.033 44.8833 237.729 44.4878 236.074 44.4878C234.507 44.4878 233.247 44.8687 232.295 45.6304C231.343 46.3921 230.676 47.542 230.295 49.0801H241.699ZM266.331 62V45.3447H262.683V41.1699H266.331V33.2817H271.099V41.1699H274.746V45.3447H271.099V62H266.331ZM278.877 62V27.9424H283.359V44.5757C284.312 43.1401 285.432 42.0928 286.721 41.4336C288.01 40.7744 289.578 40.4448 291.423 40.4448C292.976 40.4448 294.294 40.6938 295.378 41.1919C296.477 41.6753 297.334 42.4004 297.949 43.3672C298.315 43.9385 298.579 44.605 298.74 45.3667C298.901 46.1284 298.982 47.4614 298.982 49.3657V62H294.17V51.2993C294.17 48.5601 293.833 46.7437 293.159 45.8501C292.5 44.9419 291.321 44.4878 289.622 44.4878C288.508 44.4878 287.512 44.6929 286.633 45.103C285.769 45.5132 285.088 46.0918 284.59 46.8389C284.238 47.3369 283.989 47.9814 283.843 48.7725C283.711 49.5488 283.645 50.7939 283.645 52.5078V62H278.877ZM310.1 44.4878C310.613 43.1108 311.287 42.0928 312.122 41.4336C312.971 40.7744 314.019 40.4448 315.264 40.4448C315.938 40.4448 316.597 40.5254 317.241 40.6865C317.9 40.8477 318.545 41.082 319.175 41.3896L317.461 45.4326C317.051 45.1396 316.604 44.9272 316.121 44.7954C315.652 44.6489 315.125 44.5757 314.539 44.5757C312.957 44.5757 311.821 45.2129 311.133 46.4873C310.444 47.7471 310.1 49.8711 310.1 52.8594V62H305.332V41.126H310.1V44.4878ZM338.269 51.6509C338.269 49.7173 337.646 48.084 336.401 46.751C335.156 45.4033 333.633 44.7295 331.831 44.7295C330.044 44.7295 328.521 45.4033 327.261 46.751C326.016 48.084 325.393 49.7173 325.393 51.6509C325.393 53.5845 326.016 55.2251 327.261 56.5728C328.521 57.9058 330.044 58.5723 331.831 58.5723C333.618 58.5723 335.134 57.9058 336.379 56.5728C337.639 55.2251 338.269 53.5845 338.269 51.6509ZM320.361 51.6069C320.361 50.0835 320.647 48.6479 321.218 47.3003C321.804 45.938 322.639 44.7295 323.723 43.6748C324.792 42.6348 326.023 41.8364 327.415 41.2798C328.806 40.7231 330.264 40.4448 331.787 40.4448C333.354 40.4448 334.827 40.7231 336.204 41.2798C337.595 41.8364 338.84 42.6567 339.939 43.7407C341.038 44.8101 341.873 46.0186 342.444 47.3662C343.015 48.7139 343.301 50.1274 343.301 51.6069C343.301 53.145 343.015 54.5879 342.444 55.9355C341.887 57.2832 341.067 58.4771 339.983 59.5171C338.84 60.6157 337.573 61.4434 336.182 62C334.79 62.5713 333.325 62.8569 331.787 62.8569C330.278 62.8569 328.828 62.5713 327.437 62C326.045 61.4434 324.807 60.6304 323.723 59.561C322.625 58.4771 321.79 57.2612 321.218 55.9136C320.647 54.5659 320.361 53.1304 320.361 51.6069ZM352.969 41.1699V52.9033C352.969 54.9248 353.386 56.375 354.221 57.2539C355.056 58.1328 356.411 58.5723 358.286 58.5723C360.161 58.5723 361.516 58.1328 362.351 57.2539C363.186 56.375 363.604 54.9248 363.604 52.9033V41.1699H368.372V51.4751C368.372 55.4595 367.573 58.3525 365.977 60.1543C364.38 61.9561 361.831 62.8569 358.33 62.8569C354.771 62.8569 352.192 61.9634 350.596 60.1763C348.999 58.3892 348.201 55.4888 348.201 51.4751V41.1699H352.969ZM389.773 51.519C389.773 49.3657 389.268 47.6885 388.257 46.4873C387.261 45.2861 385.862 44.6855 384.06 44.6855C382.258 44.6855 380.837 45.3081 379.797 46.5532C378.772 47.7837 378.259 49.4976 378.259 51.6948C378.259 53.9067 378.757 55.6133 379.753 56.8145C380.75 58.0156 382.156 58.6162 383.972 58.6162C385.686 58.6162 387.078 57.9644 388.147 56.6606C389.231 55.3569 389.773 53.6431 389.773 51.519ZM394.409 60.7036C394.409 64.7759 393.596 67.6396 391.97 69.2949C390.344 70.9648 387.605 71.7998 383.752 71.7998C380.881 71.7998 378.589 71.1919 376.875 69.9761C375.161 68.7749 374.29 67.1709 374.26 65.1641L379.38 65.1421C379.453 66.0356 379.871 66.7168 380.632 67.1855C381.394 67.6543 382.463 67.8887 383.84 67.8887C385.876 67.8887 387.341 67.4419 388.235 66.5483C389.128 65.6548 389.583 64.1606 389.597 62.0659L389.641 59.2974C388.792 60.4985 387.795 61.3921 386.653 61.978C385.525 62.564 384.229 62.8569 382.764 62.8569C379.819 62.8569 377.498 61.8535 375.798 59.8467C374.114 57.8252 373.271 55.064 373.271 51.563C373.271 48.2378 374.136 45.5571 375.864 43.521C377.593 41.4702 379.849 40.4448 382.632 40.4448C384.331 40.4448 385.781 40.8037 386.982 41.5215C388.198 42.2246 389.084 43.2427 389.641 44.5757V41.1699H394.409V60.7036ZM401.001 62V27.9424H405.483V44.5757C406.436 43.1401 407.556 42.0928 408.845 41.4336C410.134 40.7744 411.702 40.4448 413.547 40.4448C415.1 40.4448 416.418 40.6938 417.502 41.1919C418.601 41.6753 419.458 42.4004 420.073 43.3672C420.439 43.9385 420.703 44.605 420.864 45.3667C421.025 46.1284 421.106 47.4614 421.106 49.3657V62H416.294V51.2993C416.294 48.5601 415.957 46.7437 415.283 45.8501C414.624 44.9419 413.445 44.4878 411.746 44.4878C410.632 44.4878 409.636 44.6929 408.757 45.103C407.893 45.5132 407.212 46.0918 406.714 46.8389C406.362 47.3369 406.113 47.9814 405.967 48.7725C405.835 49.5488 405.769 50.7939 405.769 52.5078V62H401.001ZM64.6655 105.651C64.6655 103.717 64.043 102.084 62.7979 100.751C61.5527 99.4033 60.0293 98.7295 58.2275 98.7295C56.4404 98.7295 54.917 99.4033 53.6572 100.751C52.4121 102.084 51.7896 103.717 51.7896 105.651C51.7896 107.584 52.4121 109.225 53.6572 110.573C54.917 111.906 56.4404 112.572 58.2275 112.572C60.0146 112.572 61.5308 111.906 62.7759 110.573C64.0356 109.225 64.6655 107.584 64.6655 105.651ZM46.7578 105.607C46.7578 104.083 47.0435 102.648 47.6147 101.3C48.2007 99.938 49.0356 98.7295 50.1196 97.6748C51.189 96.6348 52.4194 95.8364 53.811 95.2798C55.2026 94.7231 56.6602 94.4448 58.1836 94.4448C59.751 94.4448 61.2231 94.7231 62.6001 95.2798C63.9917 95.8364 65.2368 96.6567 66.3354 97.7407C67.4341 98.8101 68.269 100.019 68.8403 101.366C69.4116 102.714 69.6973 104.127 69.6973 105.607C69.6973 107.145 69.4116 108.588 68.8403 109.936C68.2837 111.283 67.4634 112.477 66.3794 113.517C65.2368 114.616 63.9697 115.443 62.5781 116C61.1865 116.571 59.7217 116.857 58.1836 116.857C56.6748 116.857 55.2246 116.571 53.833 116C52.4414 115.443 51.2036 114.63 50.1196 113.561C49.021 112.477 48.186 111.261 47.6147 109.914C47.0435 108.566 46.7578 107.13 46.7578 105.607ZM79.3652 95.1699V106.903C79.3652 108.925 79.7827 110.375 80.6177 111.254C81.4526 112.133 82.8076 112.572 84.6826 112.572C86.5576 112.572 87.9126 112.133 88.7476 111.254C89.5825 110.375 90 108.925 90 106.903V95.1699H94.7681V105.475C94.7681 109.459 93.9697 112.353 92.373 114.154C90.7764 115.956 88.2275 116.857 84.7266 116.857C81.167 116.857 78.5889 115.963 76.9922 114.176C75.3955 112.389 74.5972 109.489 74.5972 105.475V95.1699H79.3652ZM105.974 98.4878C106.487 97.1108 107.161 96.0928 107.996 95.4336C108.845 94.7744 109.893 94.4448 111.138 94.4448C111.812 94.4448 112.471 94.5254 113.115 94.6865C113.774 94.8477 114.419 95.082 115.049 95.3896L113.335 99.4326C112.925 99.1396 112.478 98.9272 111.995 98.7954C111.526 98.6489 110.999 98.5757 110.413 98.5757C108.831 98.5757 107.695 99.2129 107.007 100.487C106.318 101.747 105.974 103.871 105.974 106.859V116H101.206V95.126H105.974V98.4878ZM132.012 116V99.3447H128.364V95.1699H132.012V89.5889C132.012 86.8203 132.583 84.7769 133.726 83.4585C134.883 82.1401 136.67 81.481 139.087 81.481C139.6 81.481 140.127 81.5176 140.669 81.5908C141.211 81.6641 141.76 81.7812 142.317 81.9424V86.249C141.936 86.0293 141.548 85.8682 141.152 85.7656C140.771 85.6484 140.383 85.5898 139.988 85.5898C138.845 85.5898 138.025 85.9414 137.527 86.6445C137.029 87.3477 136.78 88.5342 136.78 90.2041V95.1699H141.79V99.3447H136.78V116H132.012ZM145.371 116V81.9424H150.139V116H145.371ZM177.034 106.288H160.378C160.496 108.236 161.074 109.76 162.114 110.858C163.154 111.942 164.539 112.484 166.267 112.484C167.805 112.484 169.087 112.162 170.112 111.518C171.138 110.873 172.031 109.833 172.793 108.397L176.814 110.639C175.642 112.733 174.192 114.293 172.463 115.319C170.735 116.344 168.706 116.857 166.377 116.857C163.037 116.857 160.378 115.839 158.401 113.803C156.423 111.767 155.435 109.049 155.435 105.651C155.435 102.384 156.453 99.7036 158.489 97.6089C160.54 95.4995 163.169 94.4448 166.377 94.4448C169.731 94.4448 172.346 95.4043 174.221 97.3232C176.096 99.2422 177.034 101.93 177.034 105.387V106.288ZM172.09 103.08C171.899 101.586 171.328 100.451 170.376 99.6743C169.424 98.8833 168.12 98.4878 166.465 98.4878C164.897 98.4878 163.638 98.8687 162.686 99.6304C161.733 100.392 161.067 101.542 160.686 103.08H172.09ZM183.45 116H178.176L186.064 104.794L179.319 95.1699H184.57L187.493 99.4766C187.8 99.916 188.071 100.341 188.306 100.751C188.54 101.161 188.752 101.579 188.943 102.003C189.119 101.652 189.316 101.286 189.536 100.905C189.771 100.509 190.063 100.019 190.415 99.4326L193.315 95.1699H198.523L191.777 104.838L199.6 116H194.392L190.525 110.529L190.349 110.265C189.602 109.137 189.119 108.273 188.899 107.672C188.606 108.229 188.32 108.749 188.042 109.232C187.778 109.701 187.507 110.141 187.229 110.551L183.45 116ZM201.995 86.1611C201.995 85.3555 202.288 84.6597 202.874 84.0737C203.474 83.4878 204.185 83.1948 205.005 83.1948C205.854 83.1948 206.558 83.4805 207.114 84.0518C207.686 84.6084 207.971 85.3115 207.971 86.1611C207.971 87.0107 207.686 87.7285 207.114 88.3145C206.543 88.8857 205.84 89.1714 205.005 89.1714C204.185 89.1714 203.474 88.8784 202.874 88.2925C202.288 87.6919 201.995 86.9814 201.995 86.1611ZM202.632 116V95.1699H207.4V116H202.632ZM218.848 105.519C218.848 107.643 219.39 109.357 220.474 110.661C221.572 111.964 222.986 112.616 224.714 112.616C226.516 112.616 227.908 112.016 228.889 110.814C229.885 109.613 230.383 107.907 230.383 105.695C230.383 103.498 229.863 101.784 228.823 100.553C227.798 99.3081 226.384 98.6855 224.583 98.6855C222.781 98.6855 221.375 99.2861 220.364 100.487C219.353 101.688 218.848 103.366 218.848 105.519ZM219.001 81.9424V98.5757C219.558 97.2573 220.444 96.2393 221.66 95.5215C222.891 94.8037 224.355 94.4448 226.055 94.4448C228.823 94.4448 231.064 95.4702 232.778 97.521C234.507 99.5571 235.371 102.238 235.371 105.563C235.371 109.064 234.521 111.825 232.822 113.847C231.138 115.854 228.823 116.857 225.879 116.857C224.414 116.857 223.11 116.564 221.968 115.978C220.84 115.392 219.851 114.499 219.001 113.297V116H214.233V81.9424H219.001ZM240.645 116V81.9424H245.413V116H240.645ZM272.307 106.288H255.652C255.769 108.236 256.348 109.76 257.388 110.858C258.428 111.942 259.812 112.484 261.541 112.484C263.079 112.484 264.36 112.162 265.386 111.518C266.411 110.873 267.305 109.833 268.066 108.397L272.087 110.639C270.916 112.733 269.465 114.293 267.737 115.319C266.008 116.344 263.979 116.857 261.65 116.857C258.311 116.857 255.652 115.839 253.674 113.803C251.697 111.767 250.708 109.049 250.708 105.651C250.708 102.384 251.726 99.7036 253.762 97.6089C255.813 95.4995 258.442 94.4448 261.65 94.4448C265.005 94.4448 267.62 95.4043 269.495 97.3232C271.37 99.2422 272.307 101.93 272.307 105.387V106.288ZM267.363 103.08C267.173 101.586 266.602 100.451 265.649 99.6743C264.697 98.8833 263.394 98.4878 261.738 98.4878C260.171 98.4878 258.911 98.8687 257.959 99.6304C257.007 100.392 256.34 101.542 255.959 103.08H267.363ZM53.064 170H48.2959V149.17H52.7783V152.576C53.7305 151.125 54.8071 150.071 56.0083 149.412C57.2241 148.738 58.6523 148.401 60.293 148.401C61.9189 148.401 63.2666 148.745 64.3359 149.434C65.4053 150.107 66.2183 151.14 66.7749 152.532C67.8735 151.096 69.0381 150.049 70.2686 149.39C71.5137 148.73 72.9272 148.401 74.5093 148.401C75.8862 148.401 77.0874 148.657 78.1128 149.17C79.1382 149.668 79.9365 150.4 80.5078 151.367C80.7715 151.821 80.9619 152.363 81.0791 152.993C81.2109 153.623 81.2769 154.524 81.2769 155.696V157.366V170H76.5088V159.299C76.5088 156.501 76.2085 154.663 75.6079 153.784C75.022 152.891 73.9673 152.444 72.4438 152.444C70.5688 152.444 69.2285 153.044 68.4229 154.246C67.6318 155.432 67.2363 157.52 67.2363 160.508V170H62.4243V159.299C62.4243 156.721 62.1094 154.934 61.4795 153.938C60.8643 152.942 59.7949 152.444 58.2715 152.444C57.334 152.444 56.4771 152.656 55.7007 153.081C54.9243 153.506 54.3091 154.092 53.855 154.839C53.562 155.322 53.3569 155.916 53.2397 156.619C53.1226 157.322 53.064 158.618 53.064 160.508V170ZM104.041 159.651C104.041 157.717 103.418 156.084 102.173 154.751C100.928 153.403 99.4043 152.729 97.6025 152.729C95.8154 152.729 94.292 153.403 93.0322 154.751C91.7871 156.084 91.1646 157.717 91.1646 159.651C91.1646 161.584 91.7871 163.225 93.0322 164.573C94.292 165.906 95.8154 166.572 97.6025 166.572C99.3896 166.572 100.906 165.906 102.151 164.573C103.411 163.225 104.041 161.584 104.041 159.651ZM86.1328 159.607C86.1328 158.083 86.4185 156.648 86.9897 155.3C87.5757 153.938 88.4106 152.729 89.4946 151.675C90.564 150.635 91.7944 149.836 93.186 149.28C94.5776 148.723 96.0352 148.445 97.5586 148.445C99.126 148.445 100.598 148.723 101.975 149.28C103.367 149.836 104.612 150.657 105.71 151.741C106.809 152.81 107.644 154.019 108.215 155.366C108.787 156.714 109.072 158.127 109.072 159.607C109.072 161.145 108.787 162.588 108.215 163.936C107.659 165.283 106.838 166.477 105.754 167.517C104.612 168.616 103.345 169.443 101.953 170C100.562 170.571 99.0967 170.857 97.5586 170.857C96.0498 170.857 94.5996 170.571 93.208 170C91.8164 169.443 90.5786 168.63 89.4946 167.561C88.396 166.477 87.561 165.261 86.9897 163.914C86.4185 162.566 86.1328 161.13 86.1328 159.607ZM114.126 170V149.17H118.608V152.576C119.561 151.14 120.681 150.093 121.97 149.434C123.259 148.774 124.827 148.445 126.672 148.445C128.225 148.445 129.543 148.694 130.627 149.192C131.726 149.675 132.583 150.4 133.198 151.367C133.564 151.938 133.828 152.605 133.989 153.367C134.15 154.128 134.231 155.461 134.231 157.366V170H129.419V159.299C129.419 156.56 129.082 154.744 128.408 153.85C127.749 152.942 126.57 152.488 124.871 152.488C123.757 152.488 122.761 152.693 121.882 153.103C121.018 153.513 120.337 154.092 119.839 154.839C119.487 155.337 119.238 155.981 119.092 156.772C118.96 157.549 118.894 158.794 118.894 160.508V170H114.126ZM140.164 140.161C140.164 139.355 140.457 138.66 141.042 138.074C141.643 137.488 142.354 137.195 143.174 137.195C144.023 137.195 144.727 137.48 145.283 138.052C145.854 138.608 146.14 139.312 146.14 140.161C146.14 141.011 145.854 141.729 145.283 142.314C144.712 142.886 144.009 143.171 143.174 143.171C142.354 143.171 141.643 142.878 141.042 142.292C140.457 141.692 140.164 140.981 140.164 140.161ZM140.801 170V149.17H145.569V170H140.801ZM153.523 170V153.345H149.875V149.17H153.523V141.282H158.291V149.17H161.938V153.345H158.291V170H153.523ZM165.652 140.161C165.652 139.355 165.945 138.66 166.531 138.074C167.131 137.488 167.842 137.195 168.662 137.195C169.512 137.195 170.215 137.48 170.771 138.052C171.343 138.608 171.628 139.312 171.628 140.161C171.628 141.011 171.343 141.729 170.771 142.314C170.2 142.886 169.497 143.171 168.662 143.171C167.842 143.171 167.131 142.878 166.531 142.292C165.945 141.692 165.652 140.981 165.652 140.161ZM166.289 170V149.17H171.057V170H166.289ZM193.909 170H174.551L186.152 153.345H175.715V149.17H193.909L182.549 165.825H193.909V170ZM217.705 170H212.937V167.297C212.087 168.499 211.091 169.392 209.949 169.978C208.821 170.564 207.524 170.857 206.06 170.857C203.115 170.857 200.793 169.854 199.094 167.847C197.41 165.825 196.567 163.064 196.567 159.563C196.567 156.238 197.432 153.557 199.16 151.521C200.889 149.47 203.145 148.445 205.928 148.445C207.627 148.445 209.077 148.804 210.278 149.521C211.494 150.225 212.38 151.243 212.937 152.576V149.17H217.705V170ZM213.069 159.519C213.069 157.366 212.563 155.688 211.553 154.487C210.557 153.286 209.158 152.686 207.356 152.686C205.554 152.686 204.133 153.308 203.093 154.553C202.068 155.784 201.555 157.498 201.555 159.695C201.555 161.907 202.053 163.613 203.049 164.814C204.045 166.016 205.452 166.616 207.268 166.616C208.982 166.616 210.374 165.964 211.443 164.661C212.527 163.357 213.069 161.643 213.069 159.519ZM225.417 170V153.345H221.77V149.17H225.417V141.282H230.186V149.17H233.833V153.345H230.186V170H225.417ZM237.546 140.161C237.546 139.355 237.839 138.66 238.425 138.074C239.026 137.488 239.736 137.195 240.557 137.195C241.406 137.195 242.109 137.48 242.666 138.052C243.237 138.608 243.523 139.312 243.523 140.161C243.523 141.011 243.237 141.729 242.666 142.314C242.095 142.886 241.392 143.171 240.557 143.171C239.736 143.171 239.026 142.878 238.425 142.292C237.839 141.692 237.546 140.981 237.546 140.161ZM238.184 170V149.17H242.952V170H238.184ZM266.155 159.651C266.155 157.717 265.532 156.084 264.287 154.751C263.042 153.403 261.519 152.729 259.717 152.729C257.93 152.729 256.406 153.403 255.146 154.751C253.901 156.084 253.279 157.717 253.279 159.651C253.279 161.584 253.901 163.225 255.146 164.573C256.406 165.906 257.93 166.572 259.717 166.572C261.504 166.572 263.02 165.906 264.265 164.573C265.525 163.225 266.155 161.584 266.155 159.651ZM248.247 159.607C248.247 158.083 248.533 156.648 249.104 155.3C249.69 153.938 250.525 152.729 251.609 151.675C252.678 150.635 253.909 149.836 255.3 149.28C256.692 148.723 258.149 148.445 259.673 148.445C261.24 148.445 262.712 148.723 264.089 149.28C265.481 149.836 266.726 150.657 267.825 151.741C268.923 152.81 269.758 154.019 270.33 155.366C270.901 156.714 271.187 158.127 271.187 159.607C271.187 161.145 270.901 162.588 270.33 163.936C269.773 165.283 268.953 166.477 267.869 167.517C266.726 168.616 265.459 169.443 264.067 170C262.676 170.571 261.211 170.857 259.673 170.857C258.164 170.857 256.714 170.571 255.322 170C253.931 169.443 252.693 168.63 251.609 167.561C250.51 166.477 249.675 165.261 249.104 163.914C248.533 162.566 248.247 161.13 248.247 159.607ZM276.24 170V149.17H280.723V152.576C281.675 151.14 282.795 150.093 284.084 149.434C285.374 148.774 286.941 148.445 288.787 148.445C290.339 148.445 291.658 148.694 292.742 149.192C293.84 149.675 294.697 150.4 295.312 151.367C295.679 151.938 295.942 152.605 296.104 153.367C296.265 154.128 296.345 155.461 296.345 157.366V170H291.533V159.299C291.533 156.56 291.196 154.744 290.522 153.85C289.863 152.942 288.684 152.488 286.985 152.488C285.872 152.488 284.875 152.693 283.997 153.103C283.132 153.513 282.451 154.092 281.953 154.839C281.602 155.337 281.353 155.981 281.206 156.772C281.074 157.549 281.008 158.794 281.008 160.508V170H276.24ZM52.9102 213.519C52.9102 215.672 53.4448 217.394 54.5142 218.683C55.5981 219.972 57.019 220.616 58.7769 220.616C60.5786 220.616 61.9702 220.016 62.9517 218.814C63.9478 217.613 64.4458 215.907 64.4458 213.695C64.4458 211.498 63.9258 209.784 62.8857 208.553C61.8604 207.308 60.4468 206.686 58.645 206.686C56.8433 206.686 55.437 207.286 54.4263 208.487C53.4155 209.688 52.9102 211.366 52.9102 213.519ZM48.2959 233.8V203.17H53.064V206.576C53.6206 205.257 54.5068 204.239 55.7227 203.521C56.9531 202.804 58.418 202.445 60.1172 202.445C62.8857 202.445 65.127 203.47 66.8408 205.521C68.5693 207.557 69.4336 210.238 69.4336 213.563C69.4336 217.064 68.584 219.825 66.8848 221.847C65.2002 223.854 62.8857 224.857 59.9414 224.857C58.4766 224.857 57.1729 224.564 56.0303 223.978C54.9023 223.392 53.9136 222.499 53.064 221.297V233.8H48.2959ZM74.707 224V189.942H79.4751V224H74.707ZM105.908 224H101.14V221.297C100.291 222.499 99.2944 223.392 98.1519 223.978C97.0239 224.564 95.7275 224.857 94.2627 224.857C91.3184 224.857 88.9966 223.854 87.2974 221.847C85.6128 219.825 84.7705 217.064 84.7705 213.563C84.7705 210.238 85.6348 207.557 87.3633 205.521C89.0918 203.47 91.3477 202.445 94.1309 202.445C95.8301 202.445 97.2803 202.804 98.4814 203.521C99.6973 204.225 100.583 205.243 101.14 206.576V203.17H105.908V224ZM101.272 213.519C101.272 211.366 100.767 209.688 99.7559 208.487C98.7598 207.286 97.3608 206.686 95.5591 206.686C93.7573 206.686 92.3364 207.308 91.2964 208.553C90.271 209.784 89.7583 211.498 89.7583 213.695C89.7583 215.907 90.2563 217.613 91.2524 218.814C92.2485 220.016 93.6548 220.616 95.4712 220.616C97.1851 220.616 98.5767 219.964 99.646 218.661C100.73 217.357 101.272 215.643 101.272 213.519ZM113.621 224V207.345H109.973V203.17H113.621V195.282H118.389V203.17H122.036V207.345H118.389V224H113.621ZM126.826 224V207.345H123.179V203.17H126.826V197.589C126.826 194.82 127.397 192.777 128.54 191.458C129.697 190.14 131.484 189.481 133.901 189.481C134.414 189.481 134.941 189.518 135.483 189.591C136.025 189.664 136.575 189.781 137.131 189.942V194.249C136.75 194.029 136.362 193.868 135.967 193.766C135.586 193.648 135.198 193.59 134.802 193.59C133.66 193.59 132.839 193.941 132.341 194.645C131.843 195.348 131.594 196.534 131.594 198.204V203.17H136.604V207.345H131.594V224H126.826ZM156.335 213.651C156.335 211.717 155.713 210.084 154.468 208.751C153.223 207.403 151.699 206.729 149.897 206.729C148.11 206.729 146.587 207.403 145.327 208.751C144.082 210.084 143.459 211.717 143.459 213.651C143.459 215.584 144.082 217.225 145.327 218.573C146.587 219.906 148.11 220.572 149.897 220.572C151.685 220.572 153.201 219.906 154.446 218.573C155.706 217.225 156.335 215.584 156.335 213.651ZM138.428 213.607C138.428 212.083 138.713 210.648 139.285 209.3C139.871 207.938 140.706 206.729 141.79 205.675C142.859 204.635 144.089 203.836 145.481 203.28C146.873 202.723 148.33 202.445 149.854 202.445C151.421 202.445 152.893 202.723 154.27 203.28C155.662 203.836 156.907 204.657 158.005 205.741C159.104 206.81 159.939 208.019 160.51 209.366C161.082 210.714 161.367 212.127 161.367 213.607C161.367 215.145 161.082 216.588 160.51 217.936C159.954 219.283 159.133 220.477 158.049 221.517C156.907 222.616 155.64 223.443 154.248 224C152.856 224.571 151.392 224.857 149.854 224.857C148.345 224.857 146.895 224.571 145.503 224C144.111 223.443 142.874 222.63 141.79 221.561C140.691 220.477 139.856 219.261 139.285 217.914C138.713 216.566 138.428 215.13 138.428 213.607ZM171.189 206.488C171.702 205.111 172.375 204.093 173.21 203.434C174.06 202.774 175.107 202.445 176.353 202.445C177.026 202.445 177.686 202.525 178.33 202.687C178.989 202.848 179.634 203.082 180.264 203.39L178.55 207.433C178.14 207.14 177.693 206.927 177.209 206.795C176.741 206.649 176.213 206.576 175.627 206.576C174.045 206.576 172.91 207.213 172.222 208.487C171.533 209.747 171.189 211.871 171.189 214.859V224H166.421V203.126H171.189V206.488ZM187.756 224H182.988V203.17H187.471V206.576C188.423 205.125 189.5 204.071 190.701 203.412C191.917 202.738 193.345 202.401 194.985 202.401C196.611 202.401 197.959 202.745 199.028 203.434C200.098 204.107 200.911 205.14 201.467 206.532C202.566 205.096 203.73 204.049 204.961 203.39C206.206 202.73 207.62 202.401 209.202 202.401C210.579 202.401 211.78 202.657 212.805 203.17C213.831 203.668 214.629 204.4 215.2 205.367C215.464 205.821 215.654 206.363 215.771 206.993C215.903 207.623 215.969 208.524 215.969 209.696V211.366V224H211.201V213.299C211.201 210.501 210.901 208.663 210.3 207.784C209.714 206.891 208.66 206.444 207.136 206.444C205.261 206.444 203.921 207.044 203.115 208.246C202.324 209.432 201.929 211.52 201.929 214.508V224H197.117V213.299C197.117 210.721 196.802 208.934 196.172 207.938C195.557 206.942 194.487 206.444 192.964 206.444C192.026 206.444 191.169 206.656 190.393 207.081C189.617 207.506 189.001 208.092 188.547 208.839C188.254 209.322 188.049 209.916 187.932 210.619C187.815 211.322 187.756 212.618 187.756 214.508V224Z" fill="black"/>
<path d="M433.154 0H60C26.8629 0 0 26.8629 0 60V199C0 232.137 26.8629 259 60 259H213.796C231.218 259 245.341 244.877 245.341 227.455C245.341 210.033 259.464 195.91 276.886 195.91H310.493C328.832 195.91 343.699 181.044 343.699 162.705V143.038C343.699 135.561 337.637 129.5 330.161 129.5C322.684 129.5 316.623 123.439 316.623 115.962V104.596C316.623 90.8421 327.772 79.6923 341.527 79.6923H433.154C455.16 79.6923 473 61.8526 473 39.8462C473 17.8397 455.16 0 433.154 0Z" fill="#D8CA4B" fill-opacity="0.33"/>
</g>
<defs>
<clipPath id="clip0_0_1">
<rect width="1440" height="4897" fill="white" transform="translate(-920 -1570)"/>
</clipPath>
</defs>
</svg>
